<svg id="Layer_1" data-name="Layer 1" xmlns="http://www.w3.org/2000/svg" viewBox="0 0 99.59 12.17"><defs><style>.cls-1{fill:#6567ab;}.cls-2{fill:#999bbf;}.cls-3{fill:#c4c5d9;}</style></defs><path d="M17.55,18.9H13.06v2.83h5.3v2.19H10.21V12.08h8.17v2.21H13.06v2.49h4.49Z" transform="translate(-10.21 -11.91)"/><path d="M29.22,22.46a4.58,4.58,0,0,1-1.93,1.18,8.23,8.23,0,0,1-2.78.45,5,5,0,0,1-3.72-1.43,5.73,5.73,0,0,1-1.48-4v-1a7,7,0,0,1,.62-3.06,4.59,4.59,0,0,1,1.76-2,5,5,0,0,1,2.67-.71,5.2,5.2,0,0,1,3.43,1,4.24,4.24,0,0,1,1.43,3H26.46a2.3,2.3,0,0,0-.63-1.42,2.07,2.07,0,0,0-1.38-.42,1.85,1.85,0,0,0-1.66.91,4.9,4.9,0,0,0-.6,2.6v.72A4.69,4.69,0,0,0,22.8,21a2.15,2.15,0,0,0,1.91.89,2.38,2.38,0,0,0,1.65-.49V19.56h-2v-2h4.84Z" transform="translate(-10.21 -11.91)"/><path d="M35.21,17.22l2.18-5.14h3.09l-3.82,7.59v4.25H33.77V19.67L30,12.08H33Z" transform="translate(-10.21 -11.91)"/><path d="M51.59,20.78a1.16,1.16,0,0,0-.44-1,5.77,5.77,0,0,0-1.56-.72,13.93,13.93,0,0,1-1.82-.73,3.45,3.45,0,0,1-2.3-3.1A2.8,2.8,0,0,1,46,13.51a3.76,3.76,0,0,1,1.62-1.17A6.32,6.32,0,0,1,50,11.92a5.41,5.41,0,0,1,2.29.46,3.62,3.62,0,0,1,1.58,1.29,3.44,3.44,0,0,1,.56,1.93H51.6a1.46,1.46,0,0,0-.44-1.13,1.77,1.77,0,0,0-1.2-.39,2,2,0,0,0-1.21.33,1,1,0,0,0,0,1.69,6.13,6.13,0,0,0,1.71.76,10.67,10.67,0,0,1,2,.85,3.4,3.4,0,0,1,1.92,3.05,2.89,2.89,0,0,1-1.17,2.44,5.24,5.24,0,0,1-3.22.89,6.26,6.26,0,0,1-2.6-.52,3.94,3.94,0,0,1-1.76-1.41,3.72,3.72,0,0,1-.59-2.07H48a1.81,1.81,0,0,0,.5,1.4,2.31,2.31,0,0,0,1.59.45,1.84,1.84,0,0,0,1.12-.3A1,1,0,0,0,51.59,20.78Z" transform="translate(-10.21 -11.91)"/><path d="M58.77,19.91v4H55.91V12.08h4.73a5.57,5.57,0,0,1,2.4.5A3.77,3.77,0,0,1,64.66,14a3.88,3.88,0,0,1,.57,2.09A3.41,3.41,0,0,1,64,18.87a5.15,5.15,0,0,1-3.4,1Zm0-2.21h1.87a1.78,1.78,0,0,0,1.26-.41,1.55,1.55,0,0,0,.44-1.17,1.9,1.9,0,0,0-.45-1.33,1.58,1.58,0,0,0-1.22-.5h-1.9Z" transform="translate(-10.21 -11.91)"/><path d="M72,21.71H68.12l-.68,2.21h-3l4.34-11.84h2.68l4.38,11.84H72.72Zm-3.23-2.2h2.55L70.07,15.4Z" transform="translate(-10.21 -11.91)"/><path d="M81.05,19.74H79.5v4.18H76.65V12.08h4.66A5.21,5.21,0,0,1,84.6,13a3.14,3.14,0,0,1,1.19,2.64,3.82,3.82,0,0,1-.5,2.05A3.48,3.48,0,0,1,83.73,19L86.2,23.8v.12H83.14Zm-1.55-2.2h1.81a1.59,1.59,0,0,0,1.22-.43A1.61,1.61,0,0,0,83,15.92a1.66,1.66,0,0,0-.42-1.2,1.57,1.57,0,0,0-1.22-.44H79.5Z" transform="translate(-10.21 -11.91)"/><path d="M94.86,18.9H90.37v2.83h5.3v2.19H87.52V12.08h8.17v2.21H90.37v2.49h4.49Z" transform="translate(-10.21 -11.91)"/><rect class="cls-1" x="86.98" y="0.17" width="3.38" height="11.84"/><rect class="cls-2" x="91.86" y="0.17" width="3.38" height="11.84"/><rect class="cls-3" x="96.21" y="0.17" width="3.38" height="11.84"/></svg>